<svg id="Capa_1" enable-background="new 0 0 511.363 511.363" height="512" viewBox="0 0 511.363 511.363" width="512" xmlns="http://www.w3.org/2000/svg"><g><g><path d="m49.972 472.274h-42.472c-4.142 0-7.5-3.358-7.5-7.5s3.358-7.5 7.5-7.5h42.472c4.142 0 7.5 3.358 7.5 7.5s-3.358 7.5-7.5 7.5z" fill="#fedf30"/></g><g><path d="m503.863 54.09h-40.555c-4.143 0-7.5-3.358-7.5-7.5s3.357-7.5 7.5-7.5h40.555c4.143 0 7.5 3.358 7.5 7.5s-3.357 7.5-7.5 7.5z" fill="#fedf30"/></g><path d="m439.581 71.705h24.832c10.084 0 18.259-8.175 18.259-18.259v-13.713c0-10.084-8.175-18.259-18.259-18.259h-24.832z" fill="#fee45a"/><g><path d="m419.622 154.356v84.78c0 2.46-.97 4.82-2.71 6.56l-7.72 7.71c-2.46 2.46-2.46 6.46 0 8.92l7.68 7.68c.84.84 1.31 1.98 1.31 3.17v63.53l-5.24 13.98c-.5 1.35-.76 2.78-.76 4.22l.62 119.88h-313.85v-123.97l7.22-7.22c1.85-1.85 1.85-4.86 0-6.71l-6.42-6.43c-1.45-1.44-2.26-3.4-2.26-5.45v-21.49c0-1.71.68-3.35 1.89-4.56l13.99-13.99c2.68-2.68 4.18-6.31 4.18-10.1v-28.29c0-3.79-1.5-7.42-4.18-10.1l-9.67-9.67c-1.41-1.41-2.2-3.32-2.2-5.31v-51.24l6.78-6.77c2.7-2.71 2.7-7.09 0-9.8l-4.22-4.22v-110.4h306.64l-.36 102.17 6.57 6.57c1.74 1.73 2.71 4.09 2.71 6.55z" fill="#fef1da"/></g><g><path d="m412.483 413.207h-215.127c-19.991 0-36.197-16.206-36.197-36.197v-242.657c0-19.991 16.206-36.197 36.197-36.197h213.137l.208-59.09h-249.542-57.098v110.4l4.22 4.22c2.7 2.71 2.7 7.09 0 9.8l-6.78 6.77v51.239c0 1.992.791 3.903 2.2 5.311l9.67 9.67c2.676 2.676 4.18 6.307 4.18 10.092v28.298c0 3.79-1.506 7.426-4.186 10.106l-13.984 13.984c-1.21 1.21-1.89 2.851-1.89 4.563v21.487c0 2.05.81 4.01 2.26 5.45l6.42 6.43c1.85 1.85 1.85 4.86 0 6.71l-7.22 7.22v123.97h62.208 251.642z" fill="#fae2c0"/><path d="m72.07 15.023h368.728v63.133h-368.728z" fill="#fef1da"/><path d="m431.158 85.987h6.756c6.996 0 12.667-5.671 12.667-12.667v-53.46c0-6.996-5.671-12.667-12.667-12.667h-6.756c-6.996 0-12.667 5.671-12.667 12.667v53.459c-.001 6.996 5.671 12.668 12.667 12.668z" fill="#c68d7a"/><g><path d="m48.879 54.09h-41.379c-4.142 0-7.5-3.358-7.5-7.5s3.358-7.5 7.5-7.5h41.379c4.142 0 7.5 3.358 7.5 7.5s-3.358 7.5-7.5 7.5z" fill="#fedf30"/></g><path d="m72.782 71.705h-24.832c-10.084 0-18.259-8.175-18.259-18.259v-13.713c0-10.084 8.175-18.259 18.259-18.259h24.832z" fill="#fee45a"/><path d="m81.206 85.987h-6.756c-6.996 0-12.667-5.671-12.667-12.667v-53.46c0-6.996 5.671-12.667 12.667-12.667h6.756c6.996 0 12.667 5.671 12.667 12.667v53.459c0 6.996-5.672 12.668-12.667 12.668z" fill="#c68d7a"/><path d="m67.061 433.207h376.52v62.603h-376.52z" fill="#fef1da"/><g><path d="m503.863 472.274h-47.222c-4.143 0-7.5-3.358-7.5-7.5s3.357-7.5 7.5-7.5h47.222c4.143 0 7.5 3.358 7.5 7.5s-3.357 7.5-7.5 7.5z" fill="#fedf30"/></g><path d="m442.581 489.889h21.832c10.084 0 18.259-8.175 18.259-18.259v-13.713c0-10.084-8.175-18.259-18.259-18.259h-21.832z" fill="#fee45a"/><path d="m431.158 504.171h6.756c6.996 0 12.667-5.671 12.667-12.667v-53.459c0-6.996-5.671-12.667-12.667-12.667h-6.756c-6.996 0-12.667 5.671-12.667 12.667v53.459c-.001 6.995 5.671 12.667 12.667 12.667z" fill="#c68d7a"/><path d="m72.782 489.889h-24.832c-10.084 0-18.259-8.175-18.259-18.259v-13.713c0-10.084 8.175-18.259 18.259-18.259h24.832z" fill="#fee45a"/><path d="m81.206 504.171h-6.756c-6.996 0-12.667-5.671-12.667-12.667v-53.459c0-6.996 5.671-12.667 12.667-12.667h6.756c6.996 0 12.667 5.671 12.667 12.667v53.459c0 6.995-5.672 12.667-12.667 12.667z" fill="#c68d7a"/><g><path d="m324.892 263.181h-54.788c-4.143 0-7.5-3.358-7.5-7.5s3.357-7.5 7.5-7.5h54.788c4.143 0 7.5 3.358 7.5 7.5s-3.358 7.5-7.5 7.5z" fill="#fae2c0"/></g><path d="m418.182 315.135h-89.237c-4.143 0-7.5 3.358-7.5 7.5s3.357 7.5 7.5 7.5h89.237z" fill="#fae2c0"/></g></g></svg>