<svg id="Capa_1" enable-background="new 0 0 503 503" height="512" viewBox="0 0 503 503" width="512" xmlns="http://www.w3.org/2000/svg"><g><g><path d="m253.5 76.597c-4.143 0-7.5-3.358-7.5-7.5v-61.597c0-4.142 3.357-7.5 7.5-7.5s7.5 3.358 7.5 7.5v61.597c0 4.142-3.357 7.5-7.5 7.5z" fill="#d88a55"/></g><g><g><path d="m265.319 123.394v-16.486c0-41.241-33.432-74.673-74.673-74.673h-29.531c-3.303 0-5.981 2.678-5.981 5.981v16.487c0 41.241 33.432 74.673 74.673 74.673h29.531c3.303-.001 5.981-2.679 5.981-5.982z" fill="#fdc352"/></g></g><g><g><path d="m241.231 123.394v-16.486c0-41.241 33.432-74.673 74.673-74.673h29.531c3.303 0 5.981 2.678 5.981 5.981v16.487c0 41.241-33.432 74.673-74.673 74.673h-29.531c-3.303-.001-5.981-2.679-5.981-5.982z" fill="#fdd76f"/></g></g><g><path d="m253.5 503c-4.143 0-7.5-3.358-7.5-7.5v-65.587c0-4.142 3.357-7.5 7.5-7.5s7.5 3.358 7.5 7.5v65.587c0 4.142-3.357 7.5-7.5 7.5z" fill="#d88a55"/></g><path d="m190.646 92.231h-56.417c-4.143 0-7.5 3.358-7.5 7.5s3.357 7.5 7.5 7.5h20.905v7.468c0 41.241 33.432 74.673 74.673 74.673h29.531c3.303 0 5.982-2.678 5.982-5.981v-16.487c-.001-41.241-33.433-74.673-74.674-74.673z" fill="#fdd76f"/><path d="m190.646 153.497h-56.417c-4.143 0-7.5 3.358-7.5 7.5s3.357 7.5 7.5 7.5h20.905v7.468c0 41.241 33.432 74.673 74.673 74.673h29.531c3.303 0 5.982-2.678 5.982-5.981v-16.487c-.001-41.241-33.433-74.673-74.674-74.673z" fill="#fdc352"/><path d="m190.646 214.762h-56.417c-4.143 0-7.5 3.358-7.5 7.5s3.357 7.5 7.5 7.5h20.905v7.468c0 41.241 33.432 74.673 74.673 74.673h29.531c3.303 0 5.982-2.678 5.982-5.982v-16.487c-.001-41.239-33.433-74.672-74.674-74.672z" fill="#fdd76f"/><path d="m190.646 276.029h-56.417c-4.143 0-7.5 3.358-7.5 7.5s3.357 7.5 7.5 7.5h20.905v7.468c0 41.241 33.432 74.673 74.673 74.673h29.531c3.303 0 5.982-2.678 5.982-5.981v-16.487c-.001-41.241-33.433-74.673-74.674-74.673z" fill="#fdc352"/><path d="m190.646 337.294h-56.417c-4.143 0-7.5 3.358-7.5 7.5s3.357 7.5 7.5 7.5h20.905v7.468c0 41.241 33.432 74.673 74.673 74.673h29.531c3.303 0 5.982-2.678 5.982-5.981v-16.487c-.001-41.24-33.433-74.673-74.674-74.673z" fill="#fdd76f"/><g><g><path d="m345.435 32.234h-29.531c-.105 0-.208.007-.313.008 3.23.084 5.825 2.723 5.825 5.974v16.486c0 41.136-33.264 74.496-74.36 74.665.053.001.104.008.157.008h29.531c41.241 0 74.673-33.432 74.673-74.673v-16.486c-.001-3.304-2.679-5.982-5.982-5.982z" fill="#fdc352"/></g></g><g><g><path d="m241.231 183.39v-16.487c0-41.241 33.432-74.673 74.673-74.673h29.531c3.303 0 5.981 2.678 5.981 5.981v16.487c0 41.241-33.432 74.673-74.673 74.673h-29.531c-3.303.001-5.981-2.677-5.981-5.981z" fill="#fdc352"/></g></g><path d="m368.772 92.231h-52.868c-.105 0-.208.008-.313.008 3.23.084 5.825 2.723 5.825 5.974v16.487c0 41.136-33.264 74.496-74.36 74.665.053.001.104.008.157.008h29.531c41.241 0 74.673-33.432 74.673-74.673v-7.468h17.356c4.143 0 7.5-3.358 7.5-7.5-.001-4.143-3.359-7.501-7.501-7.501z" fill="#f2b744"/><g><g><path d="m241.231 244.656v-16.486c0-41.241 33.432-74.673 74.673-74.673h29.531c3.303 0 5.981 2.678 5.981 5.982v16.487c0 41.241-33.432 74.673-74.673 74.673h-29.531c-3.303-.001-5.981-2.679-5.981-5.983z" fill="#fdd76f"/></g></g><path d="m368.772 153.497h-52.868c-.105 0-.208.008-.313.008 3.23.084 5.825 2.723 5.825 5.973v16.487c0 41.136-33.264 74.496-74.36 74.665.053.001.104.008.157.008h29.531c41.241 0 74.673-33.432 74.673-74.673v-7.468h17.356c4.143 0 7.5-3.358 7.5-7.5-.001-4.142-3.359-7.5-7.501-7.5z" fill="#fdc352"/><g><g><path d="m241.231 305.922v-16.487c0-41.241 33.432-74.673 74.673-74.673h29.531c3.303 0 5.981 2.678 5.981 5.982v16.487c0 41.241-33.432 74.673-74.673 74.673h-29.531c-3.303 0-5.981-2.678-5.981-5.982z" fill="#fdc352"/></g></g><path d="m368.772 214.762h-52.868c-.105 0-.208.008-.313.008 3.23.084 5.825 2.723 5.825 5.973v16.487c0 41.136-33.264 74.496-74.36 74.665.053.001.104.008.157.008h29.531c41.241 0 74.673-33.432 74.673-74.673v-7.468h17.356c4.143 0 7.5-3.358 7.5-7.5-.001-4.142-3.359-7.5-7.501-7.5z" fill="#f2b744"/><g><g><path d="m241.231 367.188v-16.487c0-41.241 33.432-74.673 74.673-74.673h29.531c3.303 0 5.981 2.678 5.981 5.982v16.486c0 41.241-33.432 74.673-74.673 74.673h-29.531c-3.303.001-5.981-2.677-5.981-5.981z" fill="#fdd76f"/></g></g><path d="m368.772 276.029h-52.868c-.105 0-.208.007-.313.008 3.23.084 5.825 2.723 5.825 5.974v16.486c0 41.136-33.264 74.496-74.36 74.665.053.001.104.008.157.008h29.531c41.241 0 74.673-33.432 74.673-74.673v-7.468h17.356c4.143 0 7.5-3.358 7.5-7.5s-3.359-7.5-7.501-7.5z" fill="#fdc352"/><g><g><path d="m241.231 428.454v-16.487c0-41.241 33.432-74.673 74.673-74.673h29.531c3.303 0 5.981 2.678 5.981 5.982v16.487c0 41.241-33.432 74.673-74.673 74.673h-29.531c-3.303-.001-5.981-2.678-5.981-5.982z" fill="#fdc352"/></g></g><path d="m368.772 337.294h-52.868c-.105 0-.208.008-.313.008 3.23.084 5.825 2.723 5.825 5.974v16.487c0 41.136-33.264 74.496-74.36 74.665.053.001.104.008.157.008h29.531c41.241 0 74.673-33.432 74.673-74.673v-7.468h17.356c4.143 0 7.5-3.358 7.5-7.5s-3.359-7.501-7.501-7.501z" fill="#f2b744"/></g></svg>