<svg id="Layer_1" height="512" viewBox="0 0 512 512" width="512" xmlns="http://www.w3.org/2000/svg" data-name="Layer 1"><path d="m488 416c0 33.137-103.87 88-232 88s-232-54.863-232-88v-244h464.084l-.169 244z" fill="#f4dfcb"/><path d="m56 268.792h400v128c0 39.765-89.543 72-200 72s-200-32.235-200-72z" fill="#efd5ab"/><ellipse cx="256" cy="268" fill="#d3ba8d" rx="200" ry="76"/><path d="m414 129c44.357 10.929 74 25.905 74 43v4c0 11.685-16.732 9.347-39.075 18.569-12.984 5.359-23.219 29.167-41.885 33.213-14.935 3.237-34.811-13.7-52.594-11.511-15.69 1.933-30.562 23.333-47.955 24.32-16.08.909-33.351-18.591-50.491-18.591s-34.412 19.5-50.493 18.591c-17.393-.987-32.267-22.387-47.957-24.32-17.784-2.192-37.661 14.747-52.6 11.509-18.667-4.046-28.9-27.854-41.884-33.214-22.336-9.221-39.066-6.882-39.066-18.566v-4c0-17.095 28.643-33.071 73-44" fill="#af4732"/><path d="m96 64v56.778c0 30.498 71.634 55.222 160 55.222s160-24.724 160-55.222v-56.778z" fill="#af4732"/><path d="m256 160c-81.442 0-168-22.158-168-63.222a8 8 0 0 1 16 0c0 10.752 15.5 22.522 41.473 31.485 29.402 10.149 68.654 15.737 110.527 15.737s81.125-5.588 110.527-15.736c25.973-8.964 41.473-20.733 41.473-31.486a8 8 0 0 1 16 0c0 41.064-86.558 63.222-168 63.222z" fill="#fd7c26"/><g fill="#efd5ab"><path d="m152 272h-16a4 4 0 0 0 -8 0h-16a20 20 0 0 1 40 0z"/><path d="m276 300h-16a4 4 0 0 0 -8 0h-16a20 20 0 0 1 40 0z"/><path d="m384 272h-16a4 4 0 0 0 -8 0h-16a20 20 0 0 1 40 0z"/></g><path d="m96 64v24.778a8 8 0 0 0 -8 8c0 7.444 2.857 14.264 8 20.446v3.554a20.288 20.288 0 0 0 1.362 7.222h-.362c-44.357 10.929-73 26.905-73 44v244c0 20 37.839 47.9 96 66.893v-258.893c16-56 112-64 112-64v-96z" fill="#fcfcfc" opacity=".2"/><ellipse cx="256" cy="64" fill="#631c18" rx="160" ry="56"/><path d="m221.21 118.67c-71.64-5.56-125.21-27.92-125.21-54.67s53.57-49.11 125.21-54.67c-30.45 5.56-53.21 27.92-53.21 54.67s22.76 49.11 53.21 54.67z" fill="#fcfcfc" opacity=".2"/></svg>